<?xml version="1.0" encoding="utf-8"?>
<!-- Svg Vector Icons : http://www.sfont.cn -->
<!DOCTYPE svg PUBLIC "-//W3C//DTD SVG 1.1//EN" "http://www.w3.org/Graphics/SVG/1.1/DTD/svg11.dtd">
<svg version="1.1" xmlns="http://www.w3.org/2000/svg" xmlns:xlink="http://www.w3.org/1999/xlink" x="0px" y="0px" viewBox="0 0 1000 1000" enable-background="new 0 0 1000 1000" xml:space="preserve">
	<metadata>Svg Vector Icons : http://www.sfont.cn</metadata>
	<g transform="translate(0.000000,511.000000) scale(0.100000,-0.100000)">
		<path stroke="black" fill="green" stroke-width="2" d="M2872.8,3809.7C1470.6,2999.7,777.4,2587.7,759.5,2556c-39.6-69.3-39.6-4818.8,0-4888.1C789.3-2387.6,4934.6-4790,5000-4790c63.4,0,4210.7,2404.4,4240.4,2457.9c39.6,69.3,39.6,4818.8,0,4888.1c-17.8,29.7-419.9,275.3-1172.5,709.1c-629.8,364.4-1564.7,905.1-2077.6,1200.2c-511,295.1-952.7,540.7-980.4,544.7C4974.3,5013.9,4405.8,4695,2872.8,3809.7z M7000.4,3480.9l1901.4-1097.2l6-2267.8l3.9-2267.8l-390.2-227.8c-215.9-124.8-1059.6-612-1877.6-1083.4c-816-471.4-1521.1-877.4-1564.7-903.1l-79.2-45.6l-1950.9,1125L1098.2-2159.8V112v2271.7l1948.9,1125c1875.6,1083.4,1952.9,1125,2000.4,1099.2C5075.3,4592.1,5954.7,4087,7000.4,3480.9z"/>
	</g>
</svg>