<?xml version="1.0" encoding="utf-8"?>
<!-- Svg Vector Icons : http://www.sfont.cn -->
<!DOCTYPE svg PUBLIC "-//W3C//DTD SVG 1.1//EN" "http://www.w3.org/Graphics/SVG/1.1/DTD/svg11.dtd">
<svg version="1.1" xmlns="http://www.w3.org/2000/svg" xmlns:xlink="http://www.w3.org/1999/xlink" x="0px" y="0px" viewBox="0 0 1000 1000" enable-background="new 0 0 1000 1000" xml:space="preserve">
	<metadata>Svg Vector Icons : http://www.sfont.cn</metadata>
				<path d="M847.3,212.1c0-67.7-15.1-134.6-43.7-193.6l-4.2-8.5H200.6l-4.1,8.5c-28.6,59-43.7,125.9-43.7,193.6c0,210.8,148.8,388.7,332.1,397.8v349.9H351.6V990h310.3v-30.2H515.1V609.9C698.5,600.8,847.3,422.8,847.3,212.1z M780.3,40.2c16.5,36.1,27.5,75,32.9,115.9c-31.7,12-131.3,47.2-202.1,47.2c-22.7,0-40.4-3.6-52.6-10.7c-11.2-6.6-17.3-15.9-19.1-29.5c-2.7-21.1-13.4-37.5-31.9-48.9c-18.9-11.6-46.5-17.5-82.2-17.5c-82.6,0-190.2,31.4-236.6,46.2c6-36.3,16.3-70.8,30.9-102.7L780.3,40.2L780.3,40.2L780.3,40.2z"/>
</svg>