<?xml version="1.0" standalone="no"?>
<!DOCTYPE svg PUBLIC "-//W3C//DTD SVG 1.1//EN" 
"http://www.w3.org/Graphics/SVG/1.1/DTD/svg11.dtd">

<svg width="100%" height="100%" version="1.1"
xmlns="http://www.w3.org/2000/svg">


  <path d="M10 315
           L 110 215
           A 30 50 0 0 1 162.55 162.45
           L 172.55 152.45
           A 30 50 -45 0 1 215.1 109.9
           L 315 10" stroke="black" fill="green" stroke-width="2" fill-opacity="0.5"/>
    <path d="M10 315
           L 110 215
           A 30 50 0 0 0 162.55 162.45
           L 172.55 152.45
           A 30 50 -45 0 0 215.1 109.9
           L 315 10" stroke="black" fill="red" stroke-width="2" fill-opacity="0.5"/>
           
    <path d="M10 315
           L 110 215
           A 30 50 -90 0 1 162.55 162.45
           L 172.55 152.45
           A 30 50 -45 0 1 215.1 109.9
           L 315 10" stroke="black" fill="blue" stroke-width="2" fill-opacity="0.5"/>
           
    <path d="M10 315
           L 110 215
           A 30 50 -45 0 1 162.55 162.45
           L 172.55 152.45
           A 30 50 -45 0 1 215.1 109.9
           L 315 10" stroke="black" fill="yellow" stroke-width="2" fill-opacity="0.5"/>
           
    <path d="M10 315
           L 110 215
           A 30 50 10 0 1 162.55 162.45
           L 172.55 152.45
           A 30 50 -45 0 1 215.1 109.9
           L 315 10" stroke="black" fill="yellow" stroke-width="2" fill-opacity="0.5"/>
           
    <path d="M10 315
           L 110 215
           A 30 50 20 0 1 162.55 162.45
           L 172.55 152.45
           A 30 50 -45 0 1 215.1 109.9
           L 315 10" stroke="black" fill="yellow" stroke-width="2" fill-opacity="0.5"/>
           
    <path d="M10 315
           L 110 215
           A 30 50 30 0 1 162.55 162.45
           L 172.55 152.45
           A 30 50 -45 0 1 215.1 109.9
           L 315 10" stroke="black" fill="yellow" stroke-width="2" fill-opacity="0.5"/>
           
    <path d="M10 315
           L 110 215
           A 30 50 45 0 1 162.55 162.45
           L 172.55 152.45
           A 30 50 -45 0 1 215.1 109.9
           L 315 10" stroke="black" fill="yellow" stroke-width="2" fill-opacity="0.5"/>
           
     <path d="M10 315
           L 110 215
           A 30 50 60 0 1 162.55 162.45
           L 172.55 152.45
           A 30 50 -45 0 1 215.1 109.9
           L 315 10" stroke="black" fill="pink" stroke-width="2" fill-opacity="0.5"/>
           
    <path d="M130 110 C 120 150, 180 130, 170 110" stroke="black" fill="pink"/>
    
    <path d="M130 110 C 120 70, 180 90, 170 110" stroke="black" fill="pink"/>

</svg>